<?xml version="1.0" encoding="UTF-8" standalone="no"?>
<svg
   width="50"
   height="50"
   viewBox="0 0 50 50"
   fill="none"
   version="1.1"
   id="svg4"
   sodipodi:docname="Caretaker_TFT_icon.svg"
   inkscape:version="1.4.2 (f4327f4, 2025-05-13)"
   xmlns:inkscape="http://www.inkscape.org/namespaces/inkscape"
   xmlns:sodipodi="http://sodipodi.sourceforge.net/DTD/sodipodi-0.dtd"
   xmlns="http://www.w3.org/2000/svg"
   xmlns:svg="http://www.w3.org/2000/svg">
  <defs
     id="defs4" />
  <sodipodi:namedview
     id="namedview4"
     pagecolor="#ffffff"
     bordercolor="#000000"
     borderopacity="0.25"
     inkscape:showpageshadow="2"
     inkscape:pageopacity="0.0"
     inkscape:pagecheckerboard="0"
     inkscape:deskcolor="#d1d1d1"
     inkscape:zoom="4.3362069"
     inkscape:cx="21.101392"
     inkscape:cy="38.166998"
     inkscape:window-width="1366"
     inkscape:window-height="705"
     inkscape:window-x="-8"
     inkscape:window-y="-8"
     inkscape:window-maximized="1"
     inkscape:current-layer="svg4"
     showgrid="false" />
  <g
     id="g4"
     style="fill:#bd9e59;fill-opacity:1"
     transform="translate(-4,-4)">
    <path
       d="M 24.2231,22.0893 C 22.5246,21.1071 20.7554,21 20.2777,21.8571 c -0.4954,0.8572 0.4954,2.3393 2.1761,3.3393 1.6808,1 3.4677,1.0893 3.9454,0.2322 0.4954,-0.8572 -0.4954,-2.3393 -2.1761,-3.3393 z"
       fill="white"
       id="path1"
       style="fill:#bd9e59;fill-opacity:1" />
    <path
       d="m 33.7769,22.0893 c -1.6984,0.9821 -2.6715,2.4821 -2.1761,3.3393 0.4954,0.8571 2.2646,0.75 3.9454,-0.2322 1.6807,-0.9821 2.6715,-2.4821 2.1761,-3.3393 -0.4954,-0.8571 -2.2646,-0.75 -3.9454,0.2322 z"
       fill="white"
       id="path2"
       style="fill:#bd9e59;fill-opacity:1" />
    <path
       d="m 29,37.9286 c 0.9771,0 1.7692,-1.599 1.7692,-3.5715 0,-1.9724 -0.7921,-3.5714 -1.7692,-3.5714 -0.9771,0 -1.7692,1.599 -1.7692,3.5714 0,1.9725 0.7921,3.5715 1.7692,3.5715 z"
       fill="white"
       id="path3"
       style="fill:#bd9e59;fill-opacity:1" />
    <path
       d="M 31.9546,9.53571 C 32.3262,8.96429 32.5385,8.30357 32.5385,7.57143 32.5385,5.60714 30.9462,4 29,4 c -1.9462,0 -3.5385,1.60714 -3.5385,3.57143 0,0.73214 0.2123,1.39286 0.5839,1.96428 C 15.4477,10.6607 6,17.7321 6,28.1071 6,33.5179 9.53846,39.7143 9.53846,39.7143 l 3.53844,-3.5714 c 0,0 1.38,8.5 5.3077,12.5 l 3.2377,-3.5715 c 0,0 1.7339,6.0893 7.3777,8.9286 5.6615,-2.8393 7.3777,-8.9286 7.3777,-8.9286 l 3.2377,3.5715 c 3.9277,-4 5.3077,-12.5 5.3077,-12.5 l 3.5384,3.5714 c 0,0 3.5385,-6.1964 3.5385,-11.6072 C 52,17.7321 42.5523,10.6607 31.9546,9.53571 Z M 29,12.9286 c 1.5215,0 2.9723,0.25 4.3346,0.6964 C 32.9277,15.2679 31.1408,16.5 29,16.5 26.8592,16.5 25.0546,15.2679 24.6654,13.625 26.0277,13.1786 27.4962,12.9286 29,12.9286 Z m -9.8546,24.5357 c -1.9639,-1.9107 -3.3616,-4.3929 -3.9631,-7.1786 0.4423,-0.25 0.92,-0.3928 1.4331,-0.3928 1.9461,0 3.5384,2 3.5384,4.4642 0,1.2143 -0.3892,2.3036 -1.0084,3.1072 z m 19.7092,0 c -0.6192,-0.8036 -1.0084,-1.8929 -1.0084,-3.1072 0,-2.4642 1.5923,-4.4642 3.5384,-4.4642 0.5131,0 0.9908,0.1428 1.4331,0.3928 -0.6015,2.7857 -2.0169,5.2679 -3.9631,7.1786 z m 2.53,-11.1429 c -3.91,0 -7.0769,3.6072 -7.0769,8.0357 0,2 0.6723,3.8215 1.7515,5.2322 C 33.9892,40.8036 31.5831,41.5 29,41.5 c -2.5831,0 -4.9715,-0.6964 -7.0592,-1.9107 1.0792,-1.4107 1.7515,-3.2322 1.7515,-5.2322 0,-4.4285 -3.1669,-8.0357 -7.0769,-8.0357 -0.6016,0 -1.1854,0.1072 -1.7339,0.2679 0.2123,-4.8393 2.7777,-9.0357 6.5816,-11.4643 1.0438,2.8571 3.9984,4.9286 7.5369,4.9286 3.5385,0 6.4931,-2.0893 7.5369,-4.9286 3.8039,2.4286 6.3869,6.625 6.5816,11.4643 -0.5662,-0.1607 -1.1323,-0.2679 -1.7339,-0.2679 z"
       fill="white"
       id="path4"
       style="fill:#bd9e59;fill-opacity:1" />
  </g>
</svg>
