<?xml version="1.0" encoding="UTF-8" standalone="no"?>
<svg
   width="58"
   height="58"
   viewBox="0 0 58 58"
   fill="none"
   version="1.1"
   id="svg2"
   sodipodi:docname="Noxus_normal_1685076207-Noxus-gray.svg"
   inkscape:version="1.3 (0e150ed6c4, 2023-07-21)"
   xmlns:inkscape="http://www.inkscape.org/namespaces/inkscape"
   xmlns:sodipodi="http://sodipodi.sourceforge.net/DTD/sodipodi-0.dtd"
   xmlns="http://www.w3.org/2000/svg"
   xmlns:svg="http://www.w3.org/2000/svg">
  <defs
     id="defs2" />
  <sodipodi:namedview
     id="namedview2"
     pagecolor="#ffffff"
     bordercolor="#000000"
     borderopacity="0.25"
     inkscape:showpageshadow="2"
     inkscape:pageopacity="0.0"
     inkscape:pagecheckerboard="0"
     inkscape:deskcolor="#d1d1d1"
     showgrid="false"
     inkscape:zoom="4.0689655"
     inkscape:cx="29"
     inkscape:cy="28.877119"
     inkscape:window-width="1366"
     inkscape:window-height="705"
     inkscape:window-x="-8"
     inkscape:window-y="-8"
     inkscape:window-maximized="1"
     inkscape:current-layer="svg2" />
  <path
     id="path2"
     d="m 22.175263,18.146049 -3.861481,2.081845 -6.272418,-6.272418 V 9.3819492 L 21.172177,0.24577689 20.541193,0.2349515 c -8.958281,0 -15.6891377,5.3770684 -18.6391603,12.3505455 h 0.026906 c 2.1573739,0 3.9101144,1.596448 3.9101144,3.56501 0,1.968437 -1.7473286,3.564903 -3.9101144,3.564903 H 0.28401113 C 0.0466948,24.973886 1.8588667,30.41033 6.2328154,34.784265 L 18.011747,46.563201 v -5.873376 l -5.964976,-5.964828 v -6.865639 l 10.13405,10.133898 V 52.52279 l 4.702756,5.242258 V 29.795502 l -5.7114,1.429341 -5.253067,-7.502175 10.964467,4.023347 V 7.2515426 l -4.702756,4.4549924 v 6.439514 z m 29.98103,-1.995494 c 0,-1.968568 1.747459,-3.56502 3.910207,-3.56502 h 0.02701 C 53.143419,5.6120616 46.41257,0.23499209 37.454274,0.23499209 l -0.630982,0.0108254 9.130822,9.13089365 v 4.5734019 l -6.27241,6.272396 -3.861633,-2.081829 V 11.701171 L 31.11719,7.2463061 V 27.740777 l 10.96446,-4.023482 -5.253073,7.502157 -5.711387,-1.429189 v 27.953318 l 4.702881,-5.242383 V 37.971829 L 45.954114,27.837781 v 6.865642 l -5.964971,5.964966 v 5.873239 L 51.768065,34.76283 c 4.373944,-4.373941 6.180674,-9.810375 5.948742,-15.068853 H 56.0665 c -2.157327,0 -3.910207,-1.596447 -3.910207,-3.565022 z"
     style="fill:#bd9e59;fill-opacity:1;stroke-width:1.35304" />
</svg>
