<?xml version="1.0" encoding="UTF-8" standalone="no"?>
<svg
   width="58"
   height="58"
   viewBox="0 0 58 58"
   fill="none"
   version="1.1"
   id="svg2"
   sodipodi:docname="Targon_normal_1685076684-Targon-gray.svg"
   inkscape:version="1.3 (0e150ed6c4, 2023-07-21)"
   xmlns:inkscape="http://www.inkscape.org/namespaces/inkscape"
   xmlns:sodipodi="http://sodipodi.sourceforge.net/DTD/sodipodi-0.dtd"
   xmlns="http://www.w3.org/2000/svg"
   xmlns:svg="http://www.w3.org/2000/svg">
  <defs
     id="defs2" />
  <sodipodi:namedview
     id="namedview2"
     pagecolor="#ffffff"
     bordercolor="#000000"
     borderopacity="0.25"
     inkscape:showpageshadow="2"
     inkscape:pageopacity="0.0"
     inkscape:pagecheckerboard="0"
     inkscape:deskcolor="#d1d1d1"
     showgrid="false"
     inkscape:zoom="4.0689655"
     inkscape:cx="29"
     inkscape:cy="28.877119"
     inkscape:window-width="1366"
     inkscape:window-height="705"
     inkscape:window-x="-8"
     inkscape:window-y="-8"
     inkscape:window-maximized="1"
     inkscape:current-layer="svg2" />
  <path
     id="path2"
     d="m 12.121042,38.25106 7.351332,6.363112 v 13.20941 L 29.821395,51.723971 V 10.706993 l -10.349021,4.66649 z M 49.98127,0.23681586 C 49.679343,0.19839086 49.37743,0.176418 49.086422,0.176418 c -3.332448,0 -6.231313,2.4650677 -6.681527,5.8579509 -0.08772,0.6422806 -0.0714,1.2737938 0.02182,1.8886767 L 40.011188,8.9386733 C 37.046507,3.8493601 31.528903,0.42896852 25.215279,0.42896852 c -9.454139,0 -17.1183084,7.66432598 -17.1183084,17.11820948 0,1.58117 0.2195927,3.107535 0.6203374,4.557037 l -6.560808,2.761437 1.707443,4.051745 6.560752,-2.76145 4.046291,-1.702079 c -0.790585,-1.224293 -1.372618,-2.591331 -1.707391,-4.051739 -0.208683,-0.916796 -0.324001,-1.872178 -0.324001,-2.854951 0,-7.049284 5.737313,-12.786466 12.786598,-12.786466 4.507409,0 8.471386,2.3443526 10.749754,5.880032 0.790583,1.22418 1.372611,2.591341 1.707388,4.051739 0.20869,0.916805 0.323857,1.872046 0.323857,2.854695 0,2.426826 -0.686165,4.69975 -1.866591,6.632309 -0.653308,1.06498 -1.449348,2.036715 -2.37719,2.865858 -0.07686,0.06582 -0.153765,0.137138 -0.230634,0.203108 -0.07686,0.05475 -0.148169,0.09316 -0.225044,0.137255 v 17.222598 l 7.351331,-6.3631 -2.909753,-9.047826 c 2.843782,-3.058054 4.589748,-7.148111 4.589748,-11.650202 0,-1.581177 -0.219588,-3.107264 -0.62033,-4.556761 l 2.755997,-1.158347 c 0.993679,0.938758 2.27838,1.592203 3.733324,1.78427 0.301914,0.03841 0.603979,0.06036 0.894862,0.06036 3.33244,0 6.231431,-2.465119 6.681519,-5.857954 0.488658,-3.6948963 -2.108135,-7.08784898 -5.80316,-7.57648405 z m 2.21268,7.10419674 c -0.208695,1.5483187 -1.537403,2.7176994 -3.096509,2.7176994 -0.13725,0 -0.279964,-0.01087 -0.422803,-0.02753 C 47.845741,9.9214538 47.109942,9.4931728 46.59934,8.8289466 46.088737,8.1645841 45.869288,7.3410138 45.98445,6.5121286 c 0.208702,-1.5483173 1.537277,-2.717699 3.096516,-2.717699 0.13725,0 0.27997,0.010868 0.422815,0.027527 0.82889,0.1097229 1.564549,0.5380057 2.075292,1.2023681 0.510465,0.6640903 0.730059,1.4877969 0.614877,2.3166879 z"
     style="fill:#bd9e59;fill-opacity:1;stroke-width:1.36316" />
</svg>
