<?xml version="1.0" encoding="UTF-8" standalone="no"?>
<svg
   width="50"
   height="50"
   viewBox="0 0 50 50"
   fill="none"
   version="1.1"
   id="svg2"
   sodipodi:docname="Darkin_TFT_icon.svg"
   inkscape:version="1.4.2 (f4327f4, 2025-05-13)"
   xmlns:inkscape="http://www.inkscape.org/namespaces/inkscape"
   xmlns:sodipodi="http://sodipodi.sourceforge.net/DTD/sodipodi-0.dtd"
   xmlns="http://www.w3.org/2000/svg"
   xmlns:svg="http://www.w3.org/2000/svg">
  <defs
     id="defs2" />
  <sodipodi:namedview
     id="namedview2"
     pagecolor="#ffffff"
     bordercolor="#000000"
     borderopacity="0.25"
     inkscape:showpageshadow="2"
     inkscape:pageopacity="0.0"
     inkscape:pagecheckerboard="0"
     inkscape:deskcolor="#d1d1d1"
     inkscape:zoom="8.6724138"
     inkscape:cx="24.041749"
     inkscape:cy="24.964215"
     inkscape:window-width="1366"
     inkscape:window-height="705"
     inkscape:window-x="-8"
     inkscape:window-y="-8"
     inkscape:window-maximized="1"
     inkscape:current-layer="svg2"
     showgrid="false" />
  <g
     id="g2"
     style="fill:#bd9e59;fill-opacity:1"
     transform="translate(-4.4999962,-4)">
    <path
       d="M 53.9819,16.4866 C 43.0229,15.9507 31.5196,11.0025 28.5803,4 26.0946,9.89496 19.6172,13.4141 10.4363,16.4866 l 1.8144,-5.3591 c -6.87653,0 -11.285517,10.4145 -1.8144,19.6499 0,0 -1.81436,-8.9317 1.8144,-8.9317 3.6288,0 1.8144,5.359 1.8144,5.359 1.9596,2.483 3.774,6.0379 5.4432,8.9318 7.2576,1.7863 9.072,7.1454 9.072,7.1454 0,0 -3.6288,-1.7864 -5.9331,-1.7864 1.9414,3.8764 3.901,7.9493 5.9331,12.5045 2.5764,-6.1629 4.8626,-11.3255 7.0399,-15.7556 -6.9855,-2.1972 -16.1119,-8.3602 -16.1119,-15.5056 0,-7.1454 9.072,-9.8249 9.072,-9.8249 0.4717,7.592 7.185,5.3233 10.8864,12.5045 h -5.4432 l 3.6288,3.5727 H 26.7659 c 1.6874,2.3937 6.677,4.3587 10.7231,5.627 C 42.4967,25.2576 47.1779,19.9521 54,16.4866 Z"
       fill="white"
       id="path1"
       style="fill:#bd9e59;fill-opacity:1" />
    <path
       d="m 26.7659,20.0593 c -3.6288,0 -5.4432,2.6795 -5.4432,2.6795 0,0 1.8144,2.6796 5.4432,2.6796 3.6288,0 5.4432,-2.6796 5.4432,-2.6796 0,0 -1.8144,-2.6795 -5.4432,-2.6795 z"
       fill="white"
       id="path2"
       style="fill:#bd9e59;fill-opacity:1" />
  </g>
</svg>
