<?xml version="1.0" encoding="UTF-8" standalone="no"?>
<svg
   width="46"
   height="46"
   viewBox="0 0 46 46"
   fill="none"
   version="1.1"
   id="svg3"
   sodipodi:docname="Gunslinger_TFT_icon.svg"
   inkscape:version="1.4.2 (f4327f4, 2025-05-13)"
   xmlns:inkscape="http://www.inkscape.org/namespaces/inkscape"
   xmlns:sodipodi="http://sodipodi.sourceforge.net/DTD/sodipodi-0.dtd"
   xmlns="http://www.w3.org/2000/svg"
   xmlns:svg="http://www.w3.org/2000/svg">
  <defs
     id="defs3" />
  <sodipodi:namedview
     id="namedview3"
     pagecolor="#ffffff"
     bordercolor="#000000"
     borderopacity="0.25"
     inkscape:showpageshadow="2"
     inkscape:pageopacity="0.0"
     inkscape:pagecheckerboard="0"
     inkscape:deskcolor="#d1d1d1"
     inkscape:zoom="3.0661613"
     inkscape:cx="-4.0767588"
     inkscape:cy="29.515734"
     inkscape:window-width="1366"
     inkscape:window-height="705"
     inkscape:window-x="-8"
     inkscape:window-y="-8"
     inkscape:window-maximized="1"
     inkscape:current-layer="svg3"
     showgrid="false" />
  <g
     id="g3"
     style="fill:#bd9e59;fill-opacity:1"
     transform="translate(-6,-6.5)">
    <path
       d="M 46.6767,29.509 V 25.9271 L 18.3622,8 l -3.5371,5.3728 19.5778,12.3931 -3.6432,5.534 6.9681,5.2832 0.902,-0.9134 c 1.0434,-1.0566 2.7235,-1.0566 3.7493,0 1.0434,1.0567 1.0434,2.758 0,3.7968 -0.7428,0.7522 -1.3264,1.3432 -1.5917,1.6118 -1.3441,1.4865 -2.9358,3.7609 -2.9358,6.3399 L 46.6943,51 C 46.6943,51 52,46.2541 52,38.4815 52,33.0908 46.6943,29.5269 46.6943,29.5269 Z"
       fill="white"
       id="path1"
       style="fill:#bd9e59;fill-opacity:1" />
    <path
       d="M 43.1572,13.3728 39.6201,8 l -7.2864,4.6206 6.0131,3.7967 z"
       fill="white"
       id="path2"
       style="fill:#bd9e59;fill-opacity:1" />
    <path
       d="m 11.3057,25.9271 v 3.5819 c 0,0 -5.3057,3.5818 -5.3057,8.9546 0,7.7725 5.3057,12.5185 5.3057,12.5185 l 8.8427,-3.5819 c 0,-2.5789 -1.5917,-4.8533 -2.9358,-6.3398 -0.2653,-0.2686 -0.8489,-0.8597 -1.5917,-1.6118 -1.0434,-1.0567 -1.0434,-2.7581 0,-3.7968 1.0435,-1.0566 2.7236,-1.0566 3.7493,0 l 0.902,0.9134 6.9681,-5.2832 -3.6432,-5.534 2.0692,-1.3074 -6.0131,-3.7967 -8.3299,5.2832 z"
       fill="white"
       id="path3"
       style="fill:#bd9e59;fill-opacity:1" />
  </g>
</svg>
